<svg id="Layer_1" data-name="Layer 1" xmlns="http://www.w3.org/2000/svg" viewBox="0 0 771.51 382.24"><defs><style>.cls-1{fill:#1fa9b5;}.cls-2{fill:#414042;}</style></defs><title>osa_logo</title><path class="cls-1" d="M281.42,171.33c-19.63,0-32,8.69-32,31.56V375.75c0,22.87,12.33,31.56,32,31.56s32-8.69,32-31.56V202.89C313.38,180,301,171.33,281.42,171.33Z" transform="translate(-9.22 -94.76)"/><path class="cls-2" d="M187.78,372.56V206.09c0-51.22,33.08-80.49,93.64-80.49a153.43,153.43,0,0,1,26.35,2.22A190.24,190.24,0,0,0,200.33,94.76C94.78,94.76,9.22,180.33,9.22,285.88S94.78,477,200.33,477a190.2,190.2,0,0,0,93.49-24.44c-4,.29-8.12.48-12.4.48C220.86,453,187.78,423.77,187.78,372.56Z" transform="translate(-9.22 -94.76)"/><path class="cls-2" d="M467.08,125.6c60,0,90.83,29.26,90.85,80.48v10.06H499.62V202.88c0-22.86-11.22-31.55-30.85-31.55S437.94,180,438,202.89c0,23.33,12.33,40.7,52.71,69.51,51.6,37,67.86,63.55,67.87,100.14,0,51.22-31.38,80.49-91.93,80.5s-92-29.26-92-80.47V352.91h58.31v22.86c0,22.87,12.34,31.09,32,31.09s32-8.23,32-31.1c0-23.32-12.35-40.7-52.73-69.5-51.58-37-67.85-63.56-67.86-100.14C376.26,154.89,407.09,125.61,467.08,125.6Z" transform="translate(-9.22 -94.76)"/><path class="cls-2" d="M780.73,449.38H718.49L707.84,391.3h-75.7l-10.65,58.08H564.87l62.79-320.12h90.27ZM640,347.86h59.42L670.28,186h-1.13Z" transform="translate(-9.22 -94.76)"/></svg>